<mxfile host="app.diagrams.net" modified="2022-02-17T08:52:35.415Z" agent="5.0 (Macintosh; Intel Mac OS X 10_15_7) AppleWebKit/537.36 (KHTML, like Gecko) Chrome/92.0.4515.159 Safari/537.36" etag="RP0gH51GJ0S3y2-ELJh1" version="16.5.6" type="github">
  <diagram id="we0jUryOAztgWfHVz9gr" name="第 1 页">
    <mxGraphModel dx="1584" dy="816" grid="1" gridSize="10" guides="1" tooltips="1" connect="1" arrows="1" fold="1" page="0" pageScale="1" pageWidth="827" pageHeight="1169" math="0" shadow="0">
      <root>
        <mxCell id="0" />
        <mxCell id="1" parent="0" />
        <mxCell id="moJjL2iaRPKuAV0dw9vV-1" value="" style="shape=umlLifeline;participant=umlActor;perimeter=lifelinePerimeter;whiteSpace=wrap;html=1;container=1;collapsible=0;recursiveResize=0;verticalAlign=top;spacingTop=36;outlineConnect=0;" vertex="1" parent="1">
          <mxGeometry x="80" y="60" width="20" height="400" as="geometry" />
        </mxCell>
        <mxCell id="moJjL2iaRPKuAV0dw9vV-2" value="server" style="shape=umlLifeline;perimeter=lifelinePerimeter;whiteSpace=wrap;html=1;container=1;collapsible=0;recursiveResize=0;outlineConnect=0;" vertex="1" parent="1">
          <mxGeometry x="370" y="60" width="100" height="400" as="geometry" />
        </mxCell>
        <mxCell id="moJjL2iaRPKuAV0dw9vV-7" value="Post /socket.io transport 为 polling,&lt;br&gt;传具体服务地址" style="html=1;verticalAlign=bottom;endArrow=block;rounded=0;" edge="1" parent="moJjL2iaRPKuAV0dw9vV-2">
          <mxGeometry width="80" relative="1" as="geometry">
            <mxPoint x="-280" y="140" as="sourcePoint" />
            <mxPoint x="50" y="140" as="targetPoint" />
            <Array as="points">
              <mxPoint x="-19.5" y="140" />
            </Array>
          </mxGeometry>
        </mxCell>
        <mxCell id="moJjL2iaRPKuAV0dw9vV-4" value="返回服务端相关配置" style="html=1;verticalAlign=bottom;endArrow=open;dashed=1;endSize=8;rounded=0;" edge="1" parent="1" source="moJjL2iaRPKuAV0dw9vV-2" target="moJjL2iaRPKuAV0dw9vV-1">
          <mxGeometry relative="1" as="geometry">
            <mxPoint x="350" y="160" as="sourcePoint" />
            <mxPoint x="270" y="160" as="targetPoint" />
            <Array as="points">
              <mxPoint x="330" y="330" />
            </Array>
          </mxGeometry>
        </mxCell>
        <mxCell id="moJjL2iaRPKuAV0dw9vV-3" value="Get /socket.io transport 为 polling" style="html=1;verticalAlign=bottom;endArrow=block;rounded=0;" edge="1" parent="1" source="moJjL2iaRPKuAV0dw9vV-1" target="moJjL2iaRPKuAV0dw9vV-2">
          <mxGeometry width="80" relative="1" as="geometry">
            <mxPoint x="90" y="140" as="sourcePoint" />
            <mxPoint x="170" y="140" as="targetPoint" />
            <Array as="points">
              <mxPoint x="350" y="280" />
            </Array>
          </mxGeometry>
        </mxCell>
        <mxCell id="moJjL2iaRPKuAV0dw9vV-5" value="Get /socket.io transport 为 polling" style="html=1;verticalAlign=bottom;endArrow=block;rounded=0;" edge="1" parent="1">
          <mxGeometry width="80" relative="1" as="geometry">
            <mxPoint x="90" y="120" as="sourcePoint" />
            <mxPoint x="420" y="120" as="targetPoint" />
            <Array as="points">
              <mxPoint x="350.5" y="120" />
            </Array>
          </mxGeometry>
        </mxCell>
        <mxCell id="moJjL2iaRPKuAV0dw9vV-6" value="返回确认码" style="html=1;verticalAlign=bottom;endArrow=open;dashed=1;endSize=8;rounded=0;" edge="1" parent="1">
          <mxGeometry relative="1" as="geometry">
            <mxPoint x="420" y="160" as="sourcePoint" />
            <mxPoint x="90" y="160" as="targetPoint" />
            <Array as="points">
              <mxPoint x="330.5" y="160" />
            </Array>
          </mxGeometry>
        </mxCell>
        <mxCell id="moJjL2iaRPKuAV0dw9vV-8" value="返回OK" style="html=1;verticalAlign=bottom;endArrow=open;dashed=1;endSize=8;rounded=0;" edge="1" parent="1">
          <mxGeometry relative="1" as="geometry">
            <mxPoint x="420" y="240" as="sourcePoint" />
            <mxPoint x="90" y="240" as="targetPoint" />
            <Array as="points">
              <mxPoint x="330.5" y="240" />
            </Array>
          </mxGeometry>
        </mxCell>
        <mxCell id="moJjL2iaRPKuAV0dw9vV-11" value="Get /socket.io transport 为 websocket" style="html=1;verticalAlign=bottom;endArrow=block;rounded=0;" edge="1" parent="1">
          <mxGeometry width="80" relative="1" as="geometry">
            <mxPoint x="90" y="380" as="sourcePoint" />
            <mxPoint x="420" y="380" as="targetPoint" />
            <Array as="points">
              <mxPoint x="350.5" y="380" />
            </Array>
          </mxGeometry>
        </mxCell>
        <mxCell id="moJjL2iaRPKuAV0dw9vV-12" value="返回状态码 101，切换到 websocket 协议" style="html=1;verticalAlign=bottom;endArrow=open;dashed=1;endSize=8;rounded=0;" edge="1" parent="1">
          <mxGeometry relative="1" as="geometry">
            <mxPoint x="420" y="430" as="sourcePoint" />
            <mxPoint x="90" y="430" as="targetPoint" />
            <Array as="points">
              <mxPoint x="330.5" y="430" />
            </Array>
          </mxGeometry>
        </mxCell>
        <mxCell id="moJjL2iaRPKuAV0dw9vV-13" value="默认为 polling" style="text;html=1;align=center;verticalAlign=middle;resizable=0;points=[];autosize=1;strokeColor=none;fillColor=none;" vertex="1" parent="1">
          <mxGeometry x="45" y="30" width="90" height="20" as="geometry" />
        </mxCell>
        <mxCell id="moJjL2iaRPKuAV0dw9vV-14" value="" style="shape=umlLifeline;participant=umlActor;perimeter=lifelinePerimeter;whiteSpace=wrap;html=1;container=1;collapsible=0;recursiveResize=0;verticalAlign=top;spacingTop=36;outlineConnect=0;" vertex="1" parent="1">
          <mxGeometry x="535" y="60" width="20" height="400" as="geometry" />
        </mxCell>
        <mxCell id="moJjL2iaRPKuAV0dw9vV-15" value="server" style="shape=umlLifeline;perimeter=lifelinePerimeter;whiteSpace=wrap;html=1;container=1;collapsible=0;recursiveResize=0;outlineConnect=0;" vertex="1" parent="1">
          <mxGeometry x="825" y="60" width="100" height="400" as="geometry" />
        </mxCell>
        <mxCell id="moJjL2iaRPKuAV0dw9vV-24" value="手动设置为 websocket" style="text;html=1;align=center;verticalAlign=middle;resizable=0;points=[];autosize=1;strokeColor=none;fillColor=none;" vertex="1" parent="1">
          <mxGeometry x="475" y="30" width="140" height="20" as="geometry" />
        </mxCell>
        <mxCell id="moJjL2iaRPKuAV0dw9vV-25" value="Get /socket.io transport 为 websocket" style="html=1;verticalAlign=bottom;endArrow=block;rounded=0;" edge="1" parent="1" source="moJjL2iaRPKuAV0dw9vV-14" target="moJjL2iaRPKuAV0dw9vV-15">
          <mxGeometry width="80" relative="1" as="geometry">
            <mxPoint x="550" y="120" as="sourcePoint" />
            <mxPoint x="870" y="120" as="targetPoint" />
            <Array as="points">
              <mxPoint x="810.5" y="120" />
            </Array>
          </mxGeometry>
        </mxCell>
        <mxCell id="moJjL2iaRPKuAV0dw9vV-26" value="返回状态码 101，切换到 websocket 协议" style="html=1;verticalAlign=bottom;endArrow=open;dashed=1;endSize=8;rounded=0;" edge="1" parent="1" source="moJjL2iaRPKuAV0dw9vV-15" target="moJjL2iaRPKuAV0dw9vV-14">
          <mxGeometry relative="1" as="geometry">
            <mxPoint x="870" y="170" as="sourcePoint" />
            <mxPoint x="550" y="170" as="targetPoint" />
            <Array as="points">
              <mxPoint x="780.5" y="170" />
            </Array>
          </mxGeometry>
        </mxCell>
        <mxCell id="moJjL2iaRPKuAV0dw9vV-27" value="message 相关配置" style="html=1;verticalAlign=bottom;endArrow=open;dashed=1;endSize=8;rounded=0;" edge="1" parent="1" source="moJjL2iaRPKuAV0dw9vV-15" target="moJjL2iaRPKuAV0dw9vV-14">
          <mxGeometry relative="1" as="geometry">
            <mxPoint x="880.11" y="210" as="sourcePoint" />
            <mxPoint x="549.9988888888889" y="210" as="targetPoint" />
            <Array as="points">
              <mxPoint x="786.11" y="210" />
            </Array>
          </mxGeometry>
        </mxCell>
        <mxCell id="moJjL2iaRPKuAV0dw9vV-29" value="message&amp;nbsp; 具体地址" style="html=1;verticalAlign=bottom;endArrow=block;rounded=0;" edge="1" parent="1" source="moJjL2iaRPKuAV0dw9vV-14" target="moJjL2iaRPKuAV0dw9vV-15">
          <mxGeometry width="80" relative="1" as="geometry">
            <mxPoint x="539.9988888888889" y="259.44" as="sourcePoint" />
            <mxPoint x="870.11" y="259.44" as="targetPoint" />
            <Array as="points">
              <mxPoint x="806.11" y="259.44" />
            </Array>
          </mxGeometry>
        </mxCell>
        <mxCell id="moJjL2iaRPKuAV0dw9vV-30" value="message 返回地址+sid" style="html=1;verticalAlign=bottom;endArrow=open;dashed=1;endSize=8;rounded=0;" edge="1" parent="1" source="moJjL2iaRPKuAV0dw9vV-15" target="moJjL2iaRPKuAV0dw9vV-14">
          <mxGeometry relative="1" as="geometry">
            <mxPoint x="870.11" y="310" as="sourcePoint" />
            <mxPoint x="550" y="310" as="targetPoint" />
            <Array as="points">
              <mxPoint x="781.72" y="310" />
            </Array>
          </mxGeometry>
        </mxCell>
        <mxCell id="moJjL2iaRPKuAV0dw9vV-31" value="io and socket&lt;br&gt;1. io 函数初始化得到 socket&lt;br&gt;2. socket 管理发送 emit、监听 on、连接 connect、关闭 disconnect" style="text;html=1;align=center;verticalAlign=middle;resizable=0;points=[];autosize=1;strokeColor=none;fillColor=none;" vertex="1" parent="1">
          <mxGeometry x="90" y="500" width="370" height="50" as="geometry" />
        </mxCell>
        <mxCell id="moJjL2iaRPKuAV0dw9vV-32" value="Manager 类&lt;br&gt;与 server 建立连接&lt;br&gt;用于创建和管理多个 socket，处理重连逻辑" style="text;html=1;align=center;verticalAlign=middle;resizable=0;points=[];autosize=1;strokeColor=none;fillColor=none;" vertex="1" parent="1">
          <mxGeometry x="160" y="570" width="250" height="50" as="geometry" />
        </mxCell>
      </root>
    </mxGraphModel>
  </diagram>
</mxfile>
